<svg width="8" height="11" viewBox="0 0 8 11" fill="none" xmlns="http://www.w3.org/2000/svg">
<path fill-rule="evenodd" clip-rule="evenodd" d="M1.50017 10.3788L4.00017 7.87883L6.50017 10.3788C6.77631 10.655 7.22403 10.655 7.50017 10.3788C7.77631 10.1027 7.77631 9.65497 7.50017 9.37883L4.70728 6.58594C4.31675 6.19541 3.68359 6.19541 3.29306 6.58594L0.500168 9.37883C0.224026 9.65497 0.224026 10.1027 0.500168 10.3788C0.776311 10.655 1.22403 10.655 1.50017 10.3788ZM1.50017 4.37883L4.00017 1.87883L6.50017 4.37883C6.77631 4.65497 7.22403 4.65497 7.50017 4.37883C7.77631 4.10269 7.77631 3.65497 7.50017 3.37883L4.70728 0.585937C4.31675 0.195414 3.68359 0.195413 3.29306 0.585937L0.500168 3.37883C0.224026 3.65497 0.224026 4.10269 0.500168 4.37883C0.776311 4.65497 1.22403 4.65497 1.50017 4.37883Z" fill="#41F6D7"/>
</svg>
